# xmcd CD database file
#
# Track frame offsets:
#	150
#	16005
#	36444
#	60419
#	76059
#	94538
#	122073
#	144974
#	163809
#	190324
#
# Disc length: 2763 seconds
#
# Revision: 0
# Processed by: cddbd v1.5.2PL0 Copyright (c) Steve Scherf et al.
# Submitted via: CDex 1.70beta2
#
DISCID=740ac90a
DTITLE=Spoonful of Blues - Black Sheep
DYEAR=2007
DGENRE=Blues
TTITLE0=Rattlesnake
TTITLE1=Four Roses
TTITLE2=Say You Will
TTITLE3=Killer
TTITLE4=Mississipi Travelin' Man
TTITLE5=Po' Monkey's
TTITLE6=I Think I Like It
TTITLE7=Shotgun Shack
TTITLE8=Here We Go Again
TTITLE9=Can't Call You Back
EXTD=YEAR: 2007
EXTT0=
EXTT1=
EXTT2=
EXTT3=
EXTT4=
EXTT5=
EXTT6=
EXTT7=
EXTT8=
EXTT9=
PLAYORDER=
